<svg width="16" height="8" viewBox="0 0 16 8" fill="none" xmlns="http://www.w3.org/2000/svg">
<path d="M15.8047 3.52738L12.6193 0.342042C12.5261 0.248836 12.4073 0.185365 12.278 0.159653C12.1487 0.133941 12.0147 0.147143 11.8929 0.19759C11.7711 0.248036 11.667 0.333463 11.5937 0.44307C11.5205 0.552676 11.4814 0.681542 11.4813 0.813375V2.83204C11.4813 2.87624 11.4638 2.91864 11.4325 2.94989C11.4013 2.98115 11.3589 2.99871 11.3147 2.99871H1C0.734784 2.99871 0.48043 3.10407 0.292893 3.2916C0.105357 3.47914 0 3.73349 0 3.99871C0 4.26393 0.105357 4.51828 0.292893 4.70582C0.48043 4.89335 0.734784 4.99871 1 4.99871H11.3147C11.3589 4.99871 11.4013 5.01627 11.4325 5.04752C11.4638 5.07878 11.4813 5.12117 11.4813 5.16538V7.18404C11.4814 7.31588 11.5205 7.44474 11.5937 7.55435C11.667 7.66395 11.7711 7.74938 11.8929 7.79983C12.0147 7.85027 12.1487 7.86348 12.278 7.83776C12.4073 7.81205 12.5261 7.74858 12.6193 7.65538L15.8047 4.47004C15.9296 4.34502 15.9999 4.17549 15.9999 3.99871C15.9999 3.82193 15.9296 3.65239 15.8047 3.52738Z" fill="white"/>
</svg>
