<svg width="10" height="8" viewBox="0 0 10 8" fill="none" xmlns="http://www.w3.org/2000/svg">
<path d="M9.24559 0.405812C9.1762 0.282691 9.07533 0.180229 8.95331 0.108921C8.83128 0.0376131 8.6925 2.25533e-05 8.55117 0H0.796887C0.655634 6.85536e-05 0.516935 0.0376631 0.394983 0.108937C0.273031 0.18021 0.172203 0.282604 0.102818 0.405641C0.0334323 0.528677 -0.00201984 0.667939 8.88697e-05 0.809176C0.00219758 0.950413 0.0417915 1.08855 0.114819 1.20946L3.99196 7.61556C4.06298 7.73289 4.16307 7.82992 4.28255 7.89727C4.40204 7.96462 4.53687 8 4.67403 8C4.81118 8 4.94602 7.96462 5.0655 7.89727C5.18499 7.82992 5.28508 7.73289 5.3561 7.61556L9.23324 1.20946C9.30629 1.08861 9.34592 0.950513 9.34809 0.809309C9.35027 0.668106 9.31489 0.52886 9.24559 0.405812Z" fill="#415092"/>
</svg>
