<svg width="271" height="56" viewBox="0 0 271 56" fill="none" xmlns="http://www.w3.org/2000/svg">
<mask id="mask0_915_27" style="mask-type:luminance" maskUnits="userSpaceOnUse" x="0" y="0" width="271" height="56">
<path d="M270.794 0H0V56H270.794V0Z" fill="white"/>
</mask>
<g mask="url(#mask0_915_27)">
<path d="M53.2969 42V21.7969H45.75V19.0938H63.9062V21.7969H56.3281V42H53.2969ZM66.6719 42V19.0938H69.4844V27.3125C70.7969 25.7917 72.4531 25.0312 74.4531 25.0312C75.6823 25.0312 76.75 25.276 77.6562 25.7656C78.5625 26.2448 79.2083 26.9115 79.5938 27.7656C79.9896 28.6198 80.1875 29.8594 80.1875 31.4844V42H77.375V31.4844C77.375 30.0781 77.0677 29.0573 76.4531 28.4219C75.849 27.776 74.9896 27.4531 73.875 27.4531C73.0417 27.4531 72.2552 27.6719 71.5156 28.1094C70.7865 28.5365 70.2656 29.1198 69.9531 29.8594C69.6406 30.599 69.4844 31.6198 69.4844 32.9219V42H66.6719ZM95.8438 36.6562L98.75 37.0156C98.2917 38.7135 97.4427 40.0312 96.2031 40.9688C94.9635 41.9062 93.3802 42.375 91.4531 42.375C89.026 42.375 87.099 41.6302 85.6719 40.1406C84.2552 38.6406 83.5469 36.5417 83.5469 33.8438C83.5469 31.0521 84.2656 28.8854 85.7031 27.3438C87.1406 25.8021 89.0052 25.0312 91.2969 25.0312C93.5156 25.0312 95.3281 25.7865 96.7344 27.2969C98.1406 28.8073 98.8438 30.9323 98.8438 33.6719C98.8438 33.8385 98.8385 34.0885 98.8281 34.4219H86.4531C86.5573 36.2448 87.0729 37.6406 88 38.6094C88.9271 39.5781 90.0833 40.0625 91.4688 40.0625C92.5 40.0625 93.3802 39.7917 94.1094 39.25C94.8385 38.7083 95.4167 37.8438 95.8438 36.6562ZM86.6094 32.1094H95.875C95.75 30.7135 95.3958 29.6667 94.8125 28.9688C93.9167 27.8854 92.7552 27.3438 91.3281 27.3438C90.0365 27.3438 88.9479 27.776 88.0625 28.6406C87.1875 29.5052 86.7031 30.6615 86.6094 32.1094ZM102.75 42V19.0938H105.781V28.5H117.688V19.0938H120.719V42H117.688V31.2031H105.781V42H102.75ZM136.25 39.9531C135.208 40.8385 134.203 41.4635 133.234 41.8281C132.276 42.1927 131.245 42.375 130.141 42.375C128.318 42.375 126.917 41.9323 125.938 41.0469C124.958 40.151 124.469 39.0104 124.469 37.625C124.469 36.8125 124.651 36.0729 125.016 35.4062C125.391 34.7292 125.875 34.1875 126.469 33.7812C127.073 33.375 127.75 33.0677 128.5 32.8594C129.052 32.7135 129.885 32.5729 131 32.4375C133.271 32.1667 134.943 31.8438 136.016 31.4688C136.026 31.0833 136.031 30.8385 136.031 30.7344C136.031 29.5885 135.766 28.7812 135.234 28.3125C134.516 27.6771 133.448 27.3594 132.031 27.3594C130.708 27.3594 129.729 27.5938 129.094 28.0625C128.469 28.5208 128.005 29.3385 127.703 30.5156L124.953 30.1406C125.203 28.9635 125.615 28.0156 126.188 27.2969C126.76 26.5677 127.589 26.0104 128.672 25.625C129.755 25.2292 131.01 25.0312 132.438 25.0312C133.854 25.0312 135.005 25.1979 135.891 25.5312C136.776 25.8646 137.427 26.2865 137.844 26.7969C138.26 27.2969 138.552 27.9323 138.719 28.7031C138.812 29.1823 138.859 30.0469 138.859 31.2969V35.0469C138.859 37.6615 138.917 39.3177 139.031 40.0156C139.156 40.7031 139.396 41.3646 139.75 42H136.812C136.521 41.4167 136.333 40.7344 136.25 39.9531ZM136.016 33.6719C134.995 34.0885 133.464 34.4427 131.422 34.7344C130.266 34.901 129.448 35.0885 128.969 35.2969C128.49 35.5052 128.12 35.8125 127.859 36.2188C127.599 36.6146 127.469 37.0573 127.469 37.5469C127.469 38.2969 127.75 38.9219 128.312 39.4219C128.885 39.9219 129.719 40.1719 130.812 40.1719C131.896 40.1719 132.859 39.9375 133.703 39.4688C134.547 38.9896 135.167 38.3385 135.562 37.5156C135.865 36.8802 136.016 35.9427 136.016 34.7031V33.6719ZM143.172 42V19.0938H145.984V42H143.172ZM149.312 33.7031C149.312 30.6302 150.167 28.3542 151.875 26.875C153.302 25.6458 155.042 25.0312 157.094 25.0312C159.375 25.0312 161.24 25.7812 162.688 27.2812C164.135 28.7708 164.859 30.8333 164.859 33.4688C164.859 35.6042 164.536 37.2865 163.891 38.5156C163.255 39.7344 162.323 40.6823 161.094 41.3594C159.875 42.0365 158.542 42.375 157.094 42.375C154.771 42.375 152.891 41.6302 151.453 40.1406C150.026 38.651 149.312 36.5052 149.312 33.7031ZM152.203 33.7031C152.203 35.8281 152.667 37.4219 153.594 38.4844C154.521 39.5365 155.688 40.0625 157.094 40.0625C158.49 40.0625 159.651 39.5312 160.578 38.4688C161.505 37.4062 161.969 35.7865 161.969 33.6094C161.969 31.5573 161.5 30.0052 160.562 28.9531C159.635 27.8906 158.479 27.3594 157.094 27.3594C155.688 27.3594 154.521 27.8854 153.594 28.9375C152.667 29.9896 152.203 31.5781 152.203 33.7031ZM168.172 42V25.4062H170.703V27.7656C171.922 25.9427 173.682 25.0312 175.984 25.0312C176.984 25.0312 177.901 25.2135 178.734 25.5781C179.578 25.9323 180.208 26.401 180.625 26.9844C181.042 27.5677 181.333 28.2604 181.5 29.0625C181.604 29.5833 181.656 30.4948 181.656 31.7969V42H178.844V31.9062C178.844 30.7604 178.734 29.9062 178.516 29.3438C178.297 28.7708 177.906 28.3177 177.344 27.9844C176.792 27.6406 176.141 27.4688 175.391 27.4688C174.193 27.4688 173.156 27.849 172.281 28.6094C171.417 29.3698 170.984 30.8125 170.984 32.9375V42H168.172ZM185.469 43.375L188.203 43.7812C188.318 44.625 188.635 45.2396 189.156 45.625C189.854 46.1458 190.807 46.4062 192.016 46.4062C193.318 46.4062 194.323 46.1458 195.031 45.625C195.74 45.1042 196.219 44.375 196.469 43.4375C196.615 42.8646 196.682 41.6615 196.672 39.8281C195.443 41.276 193.911 42 192.078 42C189.797 42 188.031 41.1771 186.781 39.5312C185.531 37.8854 184.906 35.9115 184.906 33.6094C184.906 32.026 185.193 30.5677 185.766 29.2344C186.339 27.8906 187.167 26.8542 188.25 26.125C189.344 25.3958 190.625 25.0312 192.094 25.0312C194.052 25.0312 195.667 25.8229 196.938 27.4062V25.4062H199.531V39.75C199.531 42.3333 199.266 44.1615 198.734 45.2344C198.214 46.3177 197.38 47.1719 196.234 47.7969C195.099 48.4219 193.698 48.7344 192.031 48.7344C190.052 48.7344 188.453 48.2865 187.234 47.3906C186.016 46.5052 185.427 45.1667 185.469 43.375ZM187.797 33.4062C187.797 35.5833 188.229 37.1719 189.094 38.1719C189.958 39.1719 191.042 39.6719 192.344 39.6719C193.635 39.6719 194.719 39.1771 195.594 38.1875C196.469 37.1875 196.906 35.625 196.906 33.5C196.906 31.4688 196.453 29.9375 195.547 28.9062C194.651 27.875 193.568 27.3594 192.297 27.3594C191.047 27.3594 189.984 27.8698 189.109 28.8906C188.234 29.901 187.797 31.4062 187.797 33.4062ZM209.984 42V21.7969H202.438V19.0938H220.594V21.7969H213.016V42H209.984ZM218.75 33.7031C218.75 30.6302 219.604 28.3542 221.312 26.875C222.74 25.6458 224.479 25.0312 226.531 25.0312C228.812 25.0312 230.677 25.7812 232.125 27.2812C233.573 28.7708 234.297 30.8333 234.297 33.4688C234.297 35.6042 233.974 37.2865 233.328 38.5156C232.693 39.7344 231.76 40.6823 230.531 41.3594C229.312 42.0365 227.979 42.375 226.531 42.375C224.208 42.375 222.328 41.6302 220.891 40.1406C219.464 38.651 218.75 36.5052 218.75 33.7031ZM221.641 33.7031C221.641 35.8281 222.104 37.4219 223.031 38.4844C223.958 39.5365 225.125 40.0625 226.531 40.0625C227.927 40.0625 229.089 39.5312 230.016 38.4688C230.943 37.4062 231.406 35.7865 231.406 33.6094C231.406 31.5573 230.938 30.0052 230 28.9531C229.073 27.8906 227.917 27.3594 226.531 27.3594C225.125 27.3594 223.958 27.8854 223.031 28.9375C222.104 29.9896 221.641 31.5781 221.641 33.7031ZM248.484 42V39.5625C247.193 41.4375 245.438 42.375 243.219 42.375C242.24 42.375 241.323 42.1875 240.469 41.8125C239.625 41.4375 238.995 40.9688 238.578 40.4062C238.172 39.8333 237.885 39.1354 237.719 38.3125C237.604 37.7604 237.547 36.8854 237.547 35.6875V25.4062H240.359V34.6094C240.359 36.0781 240.417 37.0677 240.531 37.5781C240.708 38.3177 241.083 38.901 241.656 39.3281C242.229 39.7448 242.938 39.9531 243.781 39.9531C244.625 39.9531 245.417 39.7396 246.156 39.3125C246.896 38.875 247.417 38.2865 247.719 37.5469C248.031 36.7969 248.188 35.7135 248.188 34.2969V25.4062H251V42H248.484ZM255.391 42V25.4062H257.922V27.9219C258.568 26.7448 259.161 25.9688 259.703 25.5938C260.255 25.2188 260.859 25.0312 261.516 25.0312C262.464 25.0312 263.427 25.3333 264.406 25.9375L263.438 28.5469C262.75 28.1406 262.062 27.9375 261.375 27.9375C260.76 27.9375 260.208 28.125 259.719 28.5C259.229 28.8646 258.88 29.375 258.672 30.0312C258.359 31.0312 258.203 32.125 258.203 33.3125V42H255.391Z" fill="#20265A"/>
<path d="M10.4516 39.4561C11.6284 38.9715 13.1512 38.3485 15.9201 38.3485C18.6889 38.3485 20.1426 38.9715 21.3886 39.4561C22.4269 39.8714 23.1191 40.1483 24.7804 40.1483C26.4417 40.1483 27.1339 39.8714 28.1722 39.4561C29.0721 39.11 30.1104 38.6946 31.7025 38.487C32.3255 37.3102 32.8793 36.0642 33.2254 34.749C31.841 34.8182 31.1488 35.0951 30.1797 35.4412C29.0029 35.9258 27.48 36.5488 24.7112 36.5488C21.9423 36.5488 20.4887 35.9258 19.2427 35.4412C18.2044 35.0259 17.5122 34.749 15.8509 34.749C14.1896 34.749 13.4973 35.0259 12.459 35.4412C11.2823 35.9258 9.75939 36.5488 6.99054 36.5488C4.22169 36.5488 2.69882 35.9258 1.52206 35.4412C1.24518 35.3028 0.968291 35.2336 0.691406 35.0951C1.10673 36.4796 1.72973 37.7948 2.49116 38.9715C2.90649 39.11 3.32181 39.2484 3.66792 39.3868C4.70624 39.8022 5.39845 40.0791 7.05976 40.0791C8.72107 40.1483 9.41329 39.8022 10.4516 39.4561Z" fill="#FD6431"/>
<path d="M7.06057 34.2646C8.72188 34.2646 9.41409 33.9877 10.4524 33.5724C11.6292 33.0879 13.152 32.4649 15.9209 32.4649C18.6897 32.4649 20.1434 33.0879 21.3894 33.5724C22.4277 33.9877 23.1199 34.2646 24.7812 34.2646C26.4425 34.2646 27.1347 33.9877 28.1731 33.5724C29.3498 33.0879 30.8727 32.4649 33.6415 32.4649C33.7108 32.4649 33.7108 32.4649 33.78 32.4649C33.9184 31.7034 33.9876 30.942 33.9876 30.1113C33.9876 29.696 33.9876 29.2807 33.9184 28.7961C33.8492 28.7961 33.78 28.7961 33.7108 28.7961C32.0494 28.7961 31.3572 29.073 30.3189 29.4884C29.1422 29.9729 27.6193 30.5959 24.8504 30.5959C22.0816 30.5959 20.6279 29.9729 19.382 29.4884C18.3436 29.073 17.6514 28.7961 15.9901 28.7961C14.3288 28.7961 13.6366 29.073 12.5983 29.4884C11.4215 29.9729 9.89864 30.5959 7.12979 30.5959C4.36094 30.5959 2.83807 29.9729 1.66131 29.4884C1.17676 29.2807 0.692213 29.073 0.138443 29.0038C0 29.4191 0 29.8345 0 30.1806C0 31.0112 0.0692213 31.8419 0.207664 32.6033C1.79975 32.811 2.83807 33.2263 3.66873 33.5724C4.63782 33.9877 5.39926 34.2646 7.06057 34.2646Z" fill="#FD6431"/>
<path d="M24.7124 42.3635C21.9436 42.3635 20.4899 41.7405 19.244 41.2559C18.2056 40.8406 17.5134 40.5637 15.8521 40.5637C14.1908 40.5637 13.4986 40.8406 12.4603 41.2559C11.2835 41.7405 9.76064 42.3635 6.99179 42.3635C6.23036 42.3635 5.60737 42.2943 4.98438 42.225C8.03011 45.2015 12.2526 47.0013 16.8212 47.0013C21.459 47.0013 25.7508 45.0631 28.7965 42.0174C28.9349 41.8789 29.0734 41.6713 29.281 41.5328C28.2427 42.0174 26.9275 42.3635 24.7124 42.3635Z" fill="#FD6431"/>
<path d="M15.0219 1.24609C15.0219 1.31532 14.9527 1.31532 14.9527 1.38454C9.89956 8.92965 2.63133 19.6589 0.554688 26.7887C1.93911 26.9964 2.83899 27.4117 3.66964 27.6886C4.70796 28.1039 5.40018 28.3808 7.06149 28.3808C8.7228 28.3808 9.41501 28.1039 10.4533 27.6886C11.4916 27.2733 12.8069 26.7195 15.0219 26.6503V1.24609Z" fill="#FD6431"/>
<path d="M18.8983 1.45365C18.483 0.761434 18.0677 0.276885 17.6523 0V26.7194C19.3829 26.9271 20.4212 27.3424 21.3903 27.6885C22.4286 28.1038 23.1208 28.3807 24.7821 28.3807C26.4434 28.3807 27.1357 28.1038 28.174 27.6885C29.3507 27.204 30.7352 26.6502 33.2963 26.581C31.1505 19.4512 23.9515 8.86032 18.8983 1.45365Z" fill="#FD6431"/>
</g>
</svg>
