<svg xmlns="http://www.w3.org/2000/svg" width="33" height="33" viewBox="0 0 32 32" fill="none">
<circle cx="16" cy="16" r="11" fill="white"/>
<path d="M15.9993 0.666992C7.53268 0.666992 0.666016 7.53366 0.666016 16.0003C0.666016 24.467 7.53268 31.3337 15.9993 31.3337C24.466 31.3337 31.3327 24.467 31.3327 16.0003C31.3327 7.53366 24.466 0.666992 15.9993 0.666992ZM24.466 11.1337L13.7993 21.8003C13.666 21.9337 13.5327 22.0003 13.3327 22.0003C13.1327 22.0003 12.9993 21.9337 12.866 21.8003L7.53268 16.467C7.26602 16.2003 7.26602 15.8003 7.53268 15.5337C7.79935 15.267 8.19935 15.267 8.46602 15.5337L13.3327 20.4003L23.5327 10.2003C23.7993 9.93366 24.1994 9.93366 24.466 10.2003C24.7327 10.467 24.7327 10.867 24.466 11.1337Z" fill="#5562DA"/>
</svg>